<svg xmlns="http://www.w3.org/2000/svg" viewBox="106 378 1014 472" fill="#0a0a0a">
<path fill-rule="evenodd" d="m142.57 679.08c10.63 0 17.97 5.18 17.97 15.28 0 6.22-3.03 10.45-8.81 13.13v0.18c7.43 1.63 11.57 7.51 11.57 15.89 0 11.05-8.63 17.18-22.28 17.18h-28.75v-61.66zm-1.73 25.82c4.93 0 8.9-3.02 8.9-8.64 0-5.69-2.85-8.37-8.72-8.37h-17.97v17.01zm1.56 27.03c6.13 0 10.1-3.54 10.1-9.76 0-6.3-4.14-9.5-10.1-9.5h-19.34v19.26z"></path>
<path d="m200.43 679.08v36.44c0 10.71 2.6 17.36 14.52 17.36 11.74 0 14.5-6.39 14.5-17.1v-36.7h10.8v39.9c0 15.45-10.54 23.23-25.3 23.23-14.69 0-25.31-7.86-25.31-23.23v-39.9z"></path>
<path d="m311.49 697.3h-10.79v-0.09c-0.7-7.25-5.01-10.79-13.3-10.79-6.48 0-11.31 2.85-11.31 8.03 0 4.06 2.58 6.74 7.85 8.12l16.5 4.32c5.27 1.38 12.78 6.39 12.78 15.97 0 12.18-10.02 19.35-24.53 19.35-15.46 0-25.47-7.86-25.73-22.02h10.79c0.09 8.81 6.22 13.21 15.63 13.21 8.3 0 13.04-3.89 13.04-9.33 0-3.88-1.9-6.56-5.09-7.6-3.46-1.12-6.13-1.9-17.62-4.83-9.75-2.42-14.42-7.86-14.42-15.89 0-12.52 11.32-18.14 22.54-18.14 13.39 0 23.58 7.26 23.66 19.69z"></path>
<path d="m347.41 679.08v61.66h-10.79v-61.66z"></path>
<path d="m385.58 679.08l28.16 45.42h0.17v-45.42h10.28v61.66h-11.4l-28.07-45.34h-0.26v45.34h-10.28v-61.66z"></path>
<path d="m495.34 679.08v9.33h-33.59v16.14h31.08v8.81h-31.08v18.05h34.2v9.33h-45v-61.66z"></path>
<path d="m564.17 697.3h-10.8v-0.09c-0.69-7.25-5.01-10.79-13.3-10.79-6.48 0-11.31 2.85-11.31 8.03 0 4.06 2.59 6.74 7.86 8.12l16.49 4.32c5.27 1.38 12.78 6.39 12.78 15.97 0 12.18-10.01 19.35-24.53 19.35-15.45 0-25.47-7.86-25.73-22.02h10.79c0.1 8.81 6.23 13.21 15.64 13.21 8.29 0 13.04-3.89 13.04-9.33 0-3.88-1.9-6.56-5.09-7.6-3.46-1.12-6.14-1.9-17.62-4.83-9.76-2.42-14.42-7.86-14.42-15.89 0-12.52 11.31-18.14 22.53-18.14 13.39 0 23.58 7.26 23.67 19.69z"></path>
<path d="m634.12 697.3h-10.8v-0.09c-0.69-7.25-5.01-10.79-13.3-10.79-6.48 0-11.31 2.85-11.31 8.03 0 4.06 2.59 6.74 7.86 8.12l16.49 4.32c5.27 1.38 12.78 6.39 12.78 15.97 0 12.18-10.01 19.35-24.52 19.35-15.46 0-25.48-7.86-25.74-22.02h10.8c0.09 8.81 6.22 13.21 15.63 13.21 8.29 0 13.04-3.89 13.04-9.33 0-3.88-1.9-6.56-5.09-7.6-3.46-1.12-6.14-1.9-17.62-4.83-9.76-2.42-14.42-7.86-14.42-15.89 0-12.52 11.31-18.14 22.53-18.14 13.39 0 23.58 7.26 23.67 19.69z"></path>
<path d="m167.97 798.33h-10.8c-2.15-8.21-7.25-12.27-15.37-12.27-11.75 0-18.74 9.76-18.74 23.49 0 13.65 6.91 23.49 18.74 23.49 8.81 0 14.6-6.22 15.72-16.15h10.54c-1.13 14.77-11.06 24.96-26.26 24.96-8.72 0-15.8-3.11-21.33-9.16-5.44-6.13-8.2-13.9-8.2-23.14 0-17.62 10.97-32.3 29.53-32.3 14.25 0 24.78 8.03 26.17 21.08z"></path>
<path fill-rule="evenodd" d="m247.68 809.55c0 17.71-11.23 32.3-29.54 32.3-18.48 0-29.53-14.68-29.53-32.3 0-17.53 11.14-32.3 29.53-32.3 18.39 0 29.54 14.77 29.54 32.3zm-29.54 23.49c13.3 0 18.74-11.74 18.74-23.49 0-11.74-5.52-23.49-18.83-23.49-13.3 0-18.65 11.83-18.65 23.49 0 11.66 5.53 23.49 18.74 23.49z"></path>
<path d="m282.47 778.72l28.15 45.42h0.18v-45.42h10.27v61.66h-11.39l-28.07-45.34h-0.26v45.34h-10.28v-61.66z"></path>
<path d="m392.67 796.94h-10.8v-0.08c-0.69-7.26-5.01-10.8-13.3-10.8-6.48 0-11.31 2.85-11.31 8.03 0 4.06 2.59 6.74 7.86 8.12l16.49 4.32c5.27 1.38 12.78 6.39 12.78 15.98 0 12.17-10.01 19.34-24.53 19.34-15.45 0-25.47-7.86-25.73-22.02h10.79c0.1 8.81 6.23 13.21 15.64 13.21 8.29 0 13.04-3.88 13.04-9.33 0-3.88-1.9-6.56-5.09-7.6-3.46-1.12-6.14-1.89-17.62-4.83-9.76-2.42-14.42-7.86-14.42-15.89 0-12.52 11.31-18.14 22.53-18.14 13.39 0 23.58 7.26 23.67 19.69z"></path>
<path d="m427.89 778.72v36.45c0 10.7 2.6 17.35 14.51 17.35 11.74 0 14.51-6.39 14.51-17.1v-36.7h10.79v39.9c0 15.46-10.53 23.23-25.3 23.23-14.68 0-25.3-7.86-25.3-23.23v-39.9z"></path>
<path d="m504.93 778.72v52.33h31.34v9.33h-42.14v-61.66z"></path>
<path d="m593.79 778.72v9.33h-19.61v52.33h-10.79v-52.33h-19.52v-9.33z"></path>
<path d="m625.74 778.72v61.66h-10.8v-61.66z"></path>
<path d="m663.91 778.72l28.15 45.42h0.18v-45.42h10.27v61.66h-11.4l-28.07-45.34h-0.26v45.34h-10.27v-61.66z"></path>
<path d="m782.39 798.33h-10.54c-1.21-8.21-8.55-12.27-15.89-12.27-13.13 0-18.74 11.92-18.74 23.49 0 12.09 5.52 23.49 19.09 23.49 10.7 0 16.66-6.39 16.92-16.93h-16.41v-8.2h26.25v32.47h-6.9l-1.64-7.25c-5.27 6.04-10.54 8.72-18.57 8.72-18.39 0-29.54-14.77-29.54-32.3 0-17.53 11.15-32.3 29.54-32.3 13.21 0 24.7 7 26.43 21.08z"></path>
<path fill-rule="evenodd" d="m994.09 494.14c0 3.19-0.39 10.37-0.39 10.37h-148.66c1.59 35.47 17.93 52.21 50.22 52.21 21.52 0 40.65-12.36 45.03-26.71h49.82c-15.15 46.63-41.7 69.35-96.45 69.35-65.36 0-105.22-45.04-105.22-108.41 0-62.17 43.05-108.8 105.22-108.8 64.97 0 100.43 51.01 100.43 111.99zm-56.99-25.51c-5.58-31.08-19.13-43.84-45.43-43.84-27.5 0-44.24 16.74-46.63 43.84z"></path>
<path d="m314.33 460.27h-55.4c-3.58-23.52-17.54-35.48-41.84-35.48-34.28 0-48.23 33.48-48.23 66.96 0 33.88 13.95 64.97 47.03 64.97 25.11 0 41.05-14.35 45.04-41.85h54.6c-7.58 54.2-44.24 84.49-99.24 84.49-64.17 0-104.02-45.83-104.02-105.62 0-65.76 39.85-111.59 105.21-111.59 52.61 0 94.06 28.69 96.85 78.12z"></path>
<path fill-rule="evenodd" d="m568.09 490.95c0 66.56-43.45 108.41-106.82 108.41-64.96 0-106.41-43.44-106.41-108.41 0-65.76 41.85-108.8 106.41-108.8 65.37 0 106.82 43.44 106.82 108.8zm-106.82 65.77c33.48 0 50.23-25.11 50.23-65.77 0-33.47-11.56-66.16-50.62-66.16-31.49 0-49.42 23.92-49.42 66.16 0 41.85 17.53 65.77 49.81 65.77z"></path>
<path d="m750.71 389.72v52.61c-5.58-1.19-12.36-1.99-20.33-1.99-41.05 0-55.79 28.29-55.79 66.16v92.86h-56.6v-206.05h53.81v38.26h0.79c10.76-25.91 37.47-43.84 65.76-43.84 5.58 0 9.57 1.19 12.36 1.99z"></path>
<path fill="#F40000" d="m1042.47 599.36h69.26v-69.26h-69.26z"></path>
</svg>